# xmcd
#
# Track frame offsets:
#	150
#	11428
#	24152
#	44573
#	56856
#	68220
#	80467
#	91280
#	102742
#	114698
#	126955
#	142304
#	155247
#	167937
#	180476
#	191003
#	216240
#	230956
#	243758
#	256184
#	271639
#	284024
#	296973
#
# Disc length: 4108 seconds
#
# Revision: 0
# Processed by: cddbd v1.5.1PL2 Copyright (c) Steve Scherf et al.
# Submitted via: audiograbber 1.83.01
#
DISCID=69100a17
DTITLE=diverse Interpreten - 60ties CD 2
DYEAR=1900
DGENRE=
TTITLE0=Bobby Vee
TTITLE1=Ricky Valence
TTITLE2=The Animals
TTITLE3=The Tokens
TTITLE4=motion - Little Eva
TTITLE5=Chubby Checker
TTITLE6=Ricky Nelson
TTITLE7=Helen Shapiro
TTITLE8=The Shirelles
TTITLE9=Gerry and The Pacemakers
TTITLE10=The Supremes
TTITLE11=Bobby Vinton
TTITLE12=The Dixie Cups
TTITLE13=Nino Tempo and April Stevens
TTITLE14=Gene Chandler
TTITLE15=Barry Ryan
TTITLE16=The Honeycombs
TTITLE17=Billy J.Kramer
TTITLE18=Kenny Ball
TTITLE19=Lonnie Donnegan
TTITLE20=The Shirelles
TTITLE21=Mr.Acker Bilk
TTITLE22=The Searchers
EXTD=
EXTT0=
EXTT1=
EXTT2=
EXTT3=
EXTT4=
EXTT5=
EXTT6=
EXTT7=
EXTT8=
EXTT9=
EXTT10=
EXTT11=
EXTT12=
EXTT13=
EXTT14=
EXTT15=
EXTT16=
EXTT17=
EXTT18=
EXTT19=
EXTT20=
EXTT21=
EXTT22=
PLAYORDER=
